<svg width="26" height="25" viewBox="0 0 26 25" fill="none" xmlns="http://www.w3.org/2000/svg">
<path d="M20.4482 22.0181C19.6908 22.0181 19.0369 21.793 18.4866 21.3428C17.9363 20.8925 17.5897 20.3532 17.4467 19.7248H12.0368C10.8773 19.7248 9.91708 19.3441 9.15626 18.5827C8.39545 17.8212 8.01504 16.8604 8.01504 15.7C8.01504 14.5437 8.39545 13.5849 9.15626 12.8235C9.91708 12.062 10.8773 11.6813 12.0368 11.6813H14.042C14.7401 11.6813 15.312 11.4583 15.7578 11.0122C16.2036 10.5662 16.4265 9.99394 16.4265 9.29546C16.4265 8.59699 16.2036 8.02518 15.7578 7.58002C15.312 7.13487 14.7401 6.91229 14.042 6.91229H8.56022C8.39567 7.54067 8.0426 8.08 7.501 8.53026C6.9594 8.98052 6.30987 9.20565 5.55241 9.20565C4.68206 9.20565 3.94581 8.90454 3.34366 8.30231C2.74151 7.70009 2.44043 6.96376 2.44043 6.0933C2.44043 5.22285 2.74151 4.48664 3.34366 3.88466C3.94581 3.28268 4.68206 2.98169 5.55241 2.98169C6.30987 2.98169 6.9594 3.20682 7.501 3.65708C8.0426 4.10734 8.39567 4.64666 8.56022 5.27505H14.042C15.2003 5.27505 16.1601 5.65577 16.9216 6.41721C17.683 7.17865 18.0637 8.13851 18.0637 9.29679C18.0637 10.4551 17.683 11.4149 16.9216 12.1764C16.1601 12.9378 15.2003 13.3185 14.042 13.3185H12.0368C11.3374 13.3185 10.7652 13.5411 10.32 13.9863C9.87486 14.4315 9.65228 15.0027 9.65228 15.7C9.65228 16.4014 9.87486 16.9747 10.32 17.4198C10.7652 17.865 11.3374 18.0875 12.0368 18.0875H17.4467C17.6071 17.4592 17.9581 16.9198 18.4996 16.4696C19.0412 16.0193 19.6908 15.7942 20.4482 15.7942C21.3186 15.7942 22.0548 16.0953 22.657 16.6975C23.2591 17.2997 23.5602 18.0361 23.5602 18.9065C23.5602 19.777 23.2591 20.5132 22.657 21.1152C22.0548 21.7172 21.3186 22.0181 20.4482 22.0181ZM5.55241 7.49992C5.95171 7.49992 6.28592 7.36537 6.55501 7.09627C6.82411 6.82718 6.95866 6.49297 6.95866 6.09367C6.95866 5.69436 6.82411 5.36016 6.55501 5.09106C6.28592 4.82197 5.95171 4.68742 5.55241 4.68742C5.1531 4.68742 4.8189 4.82197 4.5498 5.09106C4.28071 5.36016 4.14616 5.69436 4.14616 6.09367C4.14616 6.49297 4.28071 6.82718 4.5498 7.09627C4.8189 7.36537 5.1531 7.49992 5.55241 7.49992Z" fill="#000028"/>
</svg>
